<?xml version="1.0" standalone="no"?>
<!DOCTYPE svg PUBLIC "-//W3C//DTD SVG 20010904//EN"
 "http://www.w3.org/TR/2001/REC-SVG-20010904/DTD/svg10.dtd">
<svg version="1.0" xmlns="http://www.w3.org/2000/svg"
 width="977.000000pt" height="977.000000pt" viewBox="0 0 977.000000 977.000000"
 preserveAspectRatio="xMidYMid meet">
<metadata>
Created by potrace 1.16, written by Peter Selinger 2001-2019
</metadata>
<g transform="translate(0.000000,977.000000) scale(0.100000,-0.100000)"
fill="#000000" stroke="none">
<path d="M0 4885 l0 -4885 4885 0 4885 0 0 4885 0 4885 -4885 0 -4885 0 0
-4885z m7975 885 c268 -68 457 -264 532 -548 34 -132 43 -366 19 -529 -50
-342 -224 -681 -444 -869 -188 -160 -431 -223 -688 -179 -248 44 -432 187
-516 405 -49 125 -55 114 80 145 64 14 165 37 225 51 59 13 116 24 126 24 14
0 27 -16 44 -54 55 -120 203 -169 324 -107 58 29 120 102 164 194 42 89 89
256 89 320 l0 40 -32 -41 c-65 -81 -175 -149 -279 -172 -93 -21 -250 -9 -329
25 -74 31 -111 39 -104 22 6 -15 -57 -146 -88 -183 -67 -82 -79 -89 -186 -113
-96 -22 -103 -25 -98 -45 19 -69 22 -64 -36 -81 -81 -23 -271 -35 -585 -35
l-283 0 0 31 c0 29 186 1162 211 1287 l10 52 257 0 c277 -1 408 -10 487 -34
81 -26 81 -24 54 -102 -20 -60 -23 -89 -23 -219 0 -158 4 -226 14 -220 3 2 16
-22 28 -53 12 -31 44 -84 71 -117 49 -59 151 -148 160 -140 2 3 -9 15 -25 27
-153 115 -224 269 -224 484 0 221 70 388 233 552 103 105 247 176 407 201 99
15 311 5 405 -19z m-5966 -360 c35 -12 85 -35 110 -52 62 -42 143 -128 137
-145 -3 -8 -1 -11 4 -8 18 11 68 -112 81 -201 7 -46 10 -86 8 -88 -4 -4 -225
-23 -324 -28 l-50 -2 -12 72 c-21 129 -62 172 -162 172 -105 0 -166 -64 -207
-220 -40 -150 -48 -209 -49 -340 0 -126 2 -137 23 -168 32 -45 71 -62 139 -62
90 0 155 55 195 163 18 50 24 57 47 57 33 0 174 -17 264 -31 67 -11 69 -12 63
-38 -13 -53 -96 -207 -143 -264 -153 -183 -379 -252 -624 -191 -260 64 -432
370 -390 695 14 113 50 241 64 232 6 -3 7 -1 3 5 -23 38 124 255 235 347 46
38 147 85 225 105 105 26 269 22 363 -10z m2204 14 c92 -23 172 -65 172 -89 0
-11 3 -24 6 -30 23 -36 62 -191 66 -267 5 -80 4 -92 -21 -143 -15 -30 -31 -55
-36 -55 -18 0 -21 22 -6 39 9 10 19 34 23 54 l5 35 -78 7 c-44 3 -124 18 -179
32 -170 44 -257 55 -400 49 -178 -8 -199 -13 -203 -53 -4 -36 27 -110 57 -137
11 -10 18 -24 14 -30 -3 -6 -3 -8 2 -4 4 4 31 -6 59 -22 75 -42 138 -60 241
-67 157 -10 316 21 402 78 28 18 45 24 49 17 13 -21 -73 -70 -176 -100 -163
-49 -334 -39 -475 26 -91 42 -137 74 -129 88 4 6 2 8 -4 5 -18 -12 -60 50 -71
105 -17 79 18 226 70 303 41 60 186 139 294 161 87 18 245 17 318 -2z m-1273
-21 c0 -5 -12 -75 -26 -158 -14 -82 -38 -229 -54 -325 -16 -96 -43 -258 -60
-359 -17 -101 -28 -186 -26 -188 3 -3 117 -4 255 -4 l251 2 0 -27 c0 -44 -42
-278 -52 -291 -7 -9 -121 -12 -464 -13 l-454 0 0 28 c0 15 9 79 20 142 41 232
51 292 105 625 30 187 62 376 69 420 8 44 17 97 21 118 l6 37 204 0 c113 0
205 -3 205 -7z m2327 -15 c-3 -13 -11 -54 -17 -93 -6 -38 -36 -218 -67 -400
-66 -392 -72 -457 -45 -501 28 -44 77 -64 157 -64 70 0 116 17 146 53 30 37
48 108 83 322 20 116 53 318 76 450 22 132 40 243 40 248 0 4 72 7 160 7 141
0 160 -2 160 -16 0 -36 -142 -864 -161 -944 -41 -165 -91 -253 -178 -313 -118
-81 -233 -112 -421 -112 -121 1 -143 4 -218 29 -110 37 -241 138 -227 174 3 8
0 10 -7 6 -8 -5 -9 -2 -5 10 4 9 3 15 -2 12 -12 -8 -17 7 -32 96 -13 77 -13
78 41 418 43 271 105 618 113 628 7 9 61 12 209 12 l200 0 -5 -22z m-775 -133
c51 -58 82 -110 114 -195 27 -71 28 -83 27 -235 0 -132 -4 -174 -22 -240 -24
-91 -114 -283 -136 -292 -8 -3 -15 -11 -15 -17 0 -18 -128 -141 -183 -176 -26
-16 -69 -37 -96 -46 -47 -15 -51 -15 -75 3 -50 36 -60 82 -63 276 -3 162 -1
183 17 225 26 59 69 97 150 134 175 80 210 100 232 131 12 18 25 34 29 37 19
15 31 90 27 169 -5 77 -30 172 -73 275 -8 18 -7 18 11 5 11 -8 36 -32 56 -54z
m-1002 -160 c-24 -88 -24 -110 -4 -173 26 -78 79 -123 225 -188 124 -56 191
-99 230 -148 46 -58 53 -365 11 -458 -11 -27 -26 -48 -32 -48 -6 0 -9 -4 -5
-9 8 -15 -54 -54 -85 -53 -75 2 -196 54 -280 121 -94 75 -138 136 -179 245
-24 66 -26 83 -26 241 0 227 19 302 123 482 20 34 37 61 38 60 1 -1 -6 -33
-16 -72z m2617 -1160 c40 -11 73 -62 73 -111 0 -119 -86 -197 -184 -164 -54
18 -76 52 -76 120 0 52 18 97 55 138 2 2 21 10 42 17 37 14 44 14 90 0z
m-2219 -27 c-3 -29 -7 -33 -34 -36 -29 -3 -32 -7 -38 -45 -4 -23 -11 -70 -17
-104 l-11 -63 -39 0 c-45 0 -44 -4 -24 110 19 106 19 100 -8 100 -31 0 -34 4
-29 40 l4 30 100 0 99 0 -3 -32z m96 -18 l-7 -50 35 0 c33 0 35 2 44 48 9 45
10 47 47 50 45 4 44 9 17 -148 -11 -63 -20 -118 -20 -122 0 -5 -18 -8 -41 -8
l-40 0 6 55 7 55 -35 0 -36 0 -6 -55 -7 -55 -41 0 -40 0 6 50 c3 28 14 91 23
140 l16 90 39 0 40 0 -7 -50z m396 36 c0 -39 -12 -46 -71 -46 -56 0 -59 -1
-59 -25 0 -23 4 -25 46 -25 44 0 45 -1 42 -27 -3 -26 -7 -28 -55 -31 -49 -3
-53 -5 -53 -28 0 -23 3 -24 60 -24 33 0 60 -3 60 -7 0 -5 -3 -18 -6 -30 -6
-22 -11 -23 -109 -23 l-102 0 18 108 c10 59 21 122 24 140 l6 32 99 0 c80 0
100 -3 100 -14z m279 -1 c32 -16 41 -33 41 -78 -1 -55 -40 -87 -108 -87 -40 0
-40 0 -48 -47 -9 -47 -10 -48 -50 -51 l-41 -3 18 108 c10 59 21 123 24 141 l6
32 65 0 c37 0 77 -6 93 -15z m161 3 c0 -7 -7 -51 -15 -98 -8 -47 -15 -88 -15
-92 0 -5 23 -8 50 -8 45 0 50 -2 50 -22 0 -13 26 33 58 102 l58 125 44 0 45 0
17 -110 c9 -60 19 -122 22 -137 5 -27 4 -28 -39 -28 -40 0 -44 2 -47 28 -2 22
-8 28 -36 30 -27 3 -35 -2 -50 -27 l-17 -31 -129 0 c-128 0 -128 0 -123 23 3
12 13 69 22 127 22 138 18 130 65 130 25 0 40 -5 40 -12z m551 -17 c17 -17 29
-40 29 -55 0 -24 -4 -26 -39 -26 -33 0 -40 4 -43 23 -2 14 -11 23 -26 25 -18
3 -26 -4 -38 -33 -8 -20 -14 -56 -12 -78 2 -34 7 -43 25 -45 14 -2 27 5 37 20
13 20 22 23 51 20 19 -2 35 -7 35 -11 0 -22 -54 -81 -85 -91 -105 -35 -185 70
-141 185 25 65 66 95 128 95 41 0 54 -5 79 -29z m269 22 c0 -5 -3 -18 -6 -30
-6 -21 -13 -23 -64 -23 -49 0 -58 -3 -63 -19 -7 -27 0 -31 50 -31 44 0 51 -8
37 -44 -4 -12 -20 -16 -55 -16 -46 0 -49 -2 -49 -25 0 -24 3 -25 61 -25 52 0
60 -2 55 -16 -3 -9 -6 -22 -6 -30 0 -11 -21 -14 -105 -14 -104 0 -105 0 -100
23 2 12 12 65 20 117 25 157 10 140 125 140 55 0 100 -3 100 -7z m296 -15 c-3
-13 -6 -29 -6 -35 0 -8 -13 -13 -30 -13 -33 0 -32 2 -50 -110 -17 -101 -16
-100 -60 -100 -38 0 -39 1 -34 28 3 15 11 62 18 105 l13 77 -28 0 c-22 0 -29
5 -29 19 0 48 7 51 112 51 99 0 100 0 94 -22z m557 11 c29 -16 37 -28 37 -62
0 -17 -10 -37 -24 -50 -24 -22 -24 -23 -5 -35 28 -17 25 -67 -6 -97 -22 -23
-31 -25 -123 -25 l-99 0 18 108 c10 59 21 122 24 140 l6 32 75 0 c41 0 85 -5
97 -11z m279 6 c3 -3 3 -17 0 -30 -4 -23 -9 -25 -62 -25 -44 0 -59 -4 -64 -16
-11 -30 -6 -34 44 -34 51 0 58 -7 44 -44 -4 -12 -20 -16 -54 -16 -39 0 -49 -4
-53 -19 -7 -28 -1 -31 63 -31 l57 0 -5 -30 -4 -30 -105 0 c-104 0 -105 0 -100
23 3 12 13 69 22 127 9 58 18 111 20 118 3 8 32 12 98 12 52 0 96 -2 99 -5z"/>
<path d="M7650 5354 c-151 -65 -203 -300 -92 -417 88 -93 230 -96 327 -6 56
51 85 125 85 213 0 137 -89 226 -224 226 -33 -1 -77 -8 -96 -16z"/>
<path d="M6485 5108 c-2 -7 -18 -96 -35 -198 -17 -102 -45 -265 -62 -362 -17
-97 -28 -184 -25 -193 8 -19 61 -20 182 -1 132 20 170 47 229 164 41 80 59
165 60 282 2 235 -71 320 -274 320 -47 0 -72 -4 -75 -12z"/>
</g>
</svg>
